<svg xmlns="http://www.w3.org/2000/svg" width="50" height="50" viewBox="0 0 50 50" fill="none">
  <path d="M45 3.7037H40V2.77778C40 2.04107 39.6839 1.33453 39.1213 0.813592C38.5587 0.292658 37.7956 0 37 0C36.2044 0 35.4413 0.292658 34.8787 0.813592C34.3161 1.33453 34 2.04107 34 2.77778V3.7037H16V2.77778C16 2.04107 15.6839 1.33453 15.1213 0.813592C14.5587 0.292658 13.7956 0 13 0C12.2044 0 11.4413 0.292658 10.8787 0.813592C10.3161 1.33453 10 2.04107 10 2.77778V3.7037H5C3.67392 3.7037 2.40215 4.19147 1.46447 5.05969C0.526784 5.92791 0 7.10548 0 8.33333V45.3704C0 46.5982 0.526784 47.7758 1.46447 48.644C2.40215 49.5122 3.67392 50 5 50H45C46.3261 50 47.5979 49.5122 48.5355 48.644C49.4732 47.7758 50 46.5982 50 45.3704V8.33333C50 7.10548 49.4732 5.92791 48.5355 5.05969C47.5979 4.19147 46.3261 3.7037 45 3.7037ZM10 9.25926C10 9.99597 10.3161 10.7025 10.8787 11.2234C11.4413 11.7444 12.2044 12.037 13 12.037C13.7956 12.037 14.5587 11.7444 15.1213 11.2234C15.6839 10.7025 16 9.99597 16 9.25926H34C34 9.99597 34.3161 10.7025 34.8787 11.2234C35.4413 11.7444 36.2044 12.037 37 12.037C37.7956 12.037 38.5587 11.7444 39.1213 11.2234C39.6839 10.7025 40 9.99597 40 9.25926H44V14.8148H6V9.25926H10ZM6 44.4444V20.3704H44V44.4444H6Z" fill="#F5F3EC"/>
</svg>
