<svg width="32" height="29" viewBox="0 0 32 29" fill="none" xmlns="http://www.w3.org/2000/svg">
<path d="M31.2238 8.18684L16.7238 0.186845C16.5018 0.0642841 16.2524 0 15.9988 0C15.7452 0 15.4958 0.0642841 15.2738 0.186845L0.773816 8.18684C0.539364 8.31656 0.343938 8.50671 0.207855 8.73753C0.0717722 8.96835 0 9.2314 0 9.49934C0 9.76729 0.0717722 10.0303 0.207855 10.2612C0.343938 10.492 0.539364 10.6821 0.773816 10.8118L3.49882 12.3118V18.2818C3.49783 18.8964 3.72449 19.4896 4.13507 19.9468C5.82757 21.8381 9.62382 25.0006 15.9988 25.0006C17.6919 25.0097 19.3769 24.7675 20.9988 24.2818V27.5006C20.9988 27.8984 21.1569 28.2799 21.4382 28.5613C21.7195 28.8426 22.101 29.0006 22.4988 29.0006C22.8966 29.0006 23.2782 28.8426 23.5595 28.5613C23.8408 28.2799 23.9988 27.8984 23.9988 27.5006V23.0156C25.4475 22.2154 26.7532 21.18 27.8626 19.9518C28.2731 19.4946 28.4998 18.9014 28.4988 18.2868V12.3168L31.2238 10.8168C31.4583 10.6871 31.6537 10.497 31.7898 10.2662C31.9259 10.0353 31.9976 9.77229 31.9976 9.50434C31.9976 9.2364 31.9259 8.97335 31.7898 8.74253C31.6537 8.51171 31.4583 8.32156 31.2238 8.19184V8.18684ZM15.9988 3.21435L27.3938 9.5006L23.2488 11.7881C23.241 11.7835 23.2335 11.7785 23.2263 11.7731L16.7263 8.18684C16.3793 8.00748 15.976 7.97058 15.6021 8.08399C15.2283 8.1974 14.9135 8.45217 14.7246 8.79411C14.5357 9.13606 14.4877 9.5382 14.5907 9.91502C14.6938 10.2918 14.9397 10.6136 15.2763 10.8118L20.1513 13.4981L15.9988 15.7881L4.60382 9.5006L15.9988 3.21435ZM15.9988 22.0006C10.9463 22.0006 7.91757 19.6168 6.49882 18.0918V13.9668L15.2738 18.8093C15.4958 18.9319 15.7452 18.9962 15.9988 18.9962C16.2524 18.9962 16.5018 18.9319 16.7238 18.8093L20.9988 16.4556V21.1093C19.4016 21.713 17.7063 22.0152 15.9988 22.0006ZM25.4988 18.0918C25.0389 18.5848 24.537 19.0369 23.9988 19.4431V14.7993L25.4988 13.9718V18.0918Z" fill="#FDFCF8"/>
</svg>
