<svg xmlns="http://www.w3.org/2000/svg" width="60" height="50" viewBox="0 0 60 50" fill="none">
  <path d="M56.6667 0H3.33333C2.44928 0 1.60143 0.376274 0.976311 1.04605C0.35119 1.71582 0 2.62423 0 3.57143V44.0476C0 45.6263 0.585316 47.1403 1.62718 48.2566C2.66905 49.3729 4.08213 50 5.55556 50H54.4444C55.9179 50 57.3309 49.3729 58.3728 48.2566C59.4147 47.1403 60 45.6263 60 44.0476V3.57143C60 2.62423 59.6488 1.71582 59.0237 1.04605C58.3986 0.376274 57.5507 0 56.6667 0ZM30 24.9167L11.9028 7.14286H48.0972L30 24.9167ZM20.2194 25L6.66667 38.3095V11.6905L20.2194 25ZM25.1528 29.8452L27.7472 32.3958C28.362 32.9998 29.1659 33.3349 30 33.3349C30.8341 33.3349 31.638 32.9998 32.2528 32.3958L34.8472 29.8452L48.0972 42.8571H11.9028L25.1528 29.8452ZM39.7806 25L53.3333 11.6905V38.3095L39.7806 25Z" fill="#FFFEFA"/>
</svg>
