<svg xmlns="http://www.w3.org/2000/svg" width="50" height="50" viewBox="0 0 50 50" fill="none">
  <path d="M47.1164 32.4035L35.7964 27.3288L35.7532 27.3096C35.0174 26.9924 34.2138 26.8647 33.4159 26.9382C32.618 27.0117 31.8512 27.284 31.1858 27.7303C31.0925 27.7927 31.0026 27.8601 30.9165 27.9322L25.5534 32.4996C22.4284 30.8049 19.1999 27.6029 17.5028 24.5163L22.0846 19.0691C22.1583 18.9811 22.2265 18.8888 22.2889 18.7926C22.7235 18.1295 22.9874 17.3692 23.057 16.5795C23.1266 15.7897 22.9998 14.995 22.688 14.2661C22.6806 14.2521 22.6742 14.2376 22.6688 14.2228L17.5965 2.88362C17.1802 1.93534 16.4696 1.14629 15.57 0.633258C14.6703 0.120222 13.6294 -0.0895441 12.6012 0.0350029C9.11167 0.49341 5.90829 2.20638 3.58937 4.85398C1.27044 7.50159 -0.00543666 10.9028 1.7414e-05 14.4223C1.7414e-05 34.0405 15.9595 50 35.5777 50C39.0972 50.0054 42.4984 48.7296 45.146 46.4106C47.7936 44.0917 49.5066 40.8883 49.965 37.3988C50.0895 36.3706 49.8798 35.3297 49.3667 34.43C48.8537 33.5304 48.0647 32.8198 47.1164 32.4035ZM35.5777 44.2306C27.675 44.2211 20.0986 41.0775 14.5106 35.4894C8.92248 29.9014 5.77891 22.325 5.76937 14.4223C5.76386 12.4307 6.44001 10.4971 7.68546 8.94292C8.93092 7.38873 10.6707 6.30749 12.6157 5.87887L17.1398 15.9752L12.5339 21.4609C12.4595 21.5496 12.3904 21.6428 12.3272 21.7398C11.8732 22.4334 11.6063 23.2327 11.5524 24.0599C11.4985 24.8872 11.6594 25.7143 12.0195 26.461C14.284 31.0957 18.9499 35.7305 23.6327 37.9997C24.3844 38.3561 25.2157 38.5113 26.0454 38.4502C26.875 38.3891 27.6746 38.1138 28.366 37.6512C28.459 37.5885 28.5481 37.5202 28.6328 37.4468L34.0248 32.8626L44.1211 37.3843C43.6925 39.3293 42.6113 41.0691 41.0571 42.3145C39.5029 43.56 37.5693 44.2361 35.5777 44.2306Z" fill="white"/>
</svg>
