<svg xmlns="http://www.w3.org/2000/svg" width="50" height="50" viewBox="0 0 50 50" fill="none">
  <path d="M49.6713 45.5998C46.4974 39.8256 41.5414 35.3265 35.6012 32.8266C38.5552 30.5301 40.7373 27.3282 41.8383 23.6747C42.9393 20.0212 42.9034 16.1012 41.7357 12.47C40.568 8.83876 38.3277 5.68044 35.3322 3.44238C32.3366 1.20433 28.7377 0 25.0451 0C21.3526 0 17.7536 1.20433 14.7581 3.44238C11.7625 5.68044 9.52223 8.83876 8.35454 12.47C7.18686 16.1012 7.15097 20.0212 8.25197 23.6747C9.35297 27.3282 11.535 30.5301 14.4891 32.8266C8.5488 35.3265 3.59283 39.8256 0.418977 45.5998C0.222313 45.9276 0.0912373 46.293 0.0335425 46.6743C-0.0241524 47.0557 -0.00728899 47.4452 0.0831305 47.8196C0.17355 48.1941 0.33568 48.5459 0.559881 48.8541C0.784082 49.1623 1.06578 49.4207 1.38822 49.6138C1.71066 49.8069 2.06727 49.9308 2.43685 49.9782C2.80642 50.0256 3.18141 49.9955 3.53953 49.8897C3.89766 49.7838 4.23159 49.6044 4.52149 49.3621C4.8114 49.1199 5.05134 48.8196 5.22707 48.4793C9.42171 40.9637 16.8295 36.4812 25.0451 36.4812C33.2608 36.4812 40.6685 40.9661 44.8632 48.4793C45.244 49.1141 45.848 49.5704 46.5476 49.7519C47.2471 49.9334 47.9874 49.8258 48.6118 49.4519C49.2362 49.0779 49.6958 48.4669 49.8935 47.7481C50.0913 47.0292 50.0115 46.2588 49.6713 45.5998ZM13.0075 18.2442C13.0075 15.7763 13.7135 13.3638 15.0362 11.3118C16.3589 9.25985 18.2389 7.66052 20.4385 6.71609C22.6381 5.77166 25.0585 5.52455 27.3935 6.00602C29.7286 6.48748 31.8735 7.67589 33.557 9.42097C35.2405 11.166 36.3869 13.3894 36.8514 15.8099C37.3159 18.2304 37.0775 20.7393 36.1664 23.0193C35.2553 25.2994 33.7124 27.2482 31.7328 28.6193C29.7533 29.9904 27.4259 30.7222 25.0451 30.7222C21.8537 30.7184 18.794 29.4025 16.5373 27.0633C14.2806 24.724 13.0112 21.5524 13.0075 18.2442Z" fill="#FEFDFC"/>
</svg>
